<?xml version="1.0" standalone="no"?>
<!DOCTYPE svg PUBLIC "-//W3C//DTD SVG 20010904//EN"
 "http://www.w3.org/TR/2001/REC-SVG-20010904/DTD/svg10.dtd">
<svg version="1.0" xmlns="http://www.w3.org/2000/svg"
 width="625.000000pt" height="661.000000pt" viewBox="0 0 625.000000 661.000000"
 preserveAspectRatio="xMidYMid meet">

<g transform="translate(0.000000,661.000000) scale(0.100000,-0.100000)"
fill="#000000" stroke="none">
<path d="M0 5080 c0 -841 2 -1530 5 -1530 25 0 179 95 251 156 39 33 64 66 99
136 27 51 61 113 78 137 42 61 199 216 377 371 41 35 130 120 197 188 110 111
130 127 194 153 39 16 77 29 84 29 52 0 329 149 490 264 55 39 111 78 126 87
39 25 129 41 211 38 45 -2 103 5 150 16 65 16 76 21 68 35 -5 9 -5 22 -1 28
10 17 44 3 37 -14 -8 -21 7 -17 71 19 77 43 137 67 171 67 60 0 102 -92 80
-175 -20 -77 -73 -134 -198 -210 -45 -27 -107 -72 -138 -99 -32 -26 -77 -62
-102 -79 -25 -16 -47 -32 -49 -33 -2 -2 2 -11 9 -19 11 -13 11 -18 -1 -30 -12
-13 -18 -13 -42 0 -24 12 -32 12 -70 -4 -42 -19 -42 -19 -15 -26 15 -4 29 -14
31 -23 3 -11 5 -8 6 7 l1 24 25 -27 c13 -14 33 -26 44 -26 11 0 23 -5 26 -11
4 -6 14 -8 22 -5 8 3 55 11 105 16 67 8 94 7 104 -1 11 -9 14 -8 14 2 0 11 2
11 8 2 10 -16 81 2 88 22 8 20 82 47 129 47 60 0 148 -29 202 -65 71 -48 118
-157 99 -231 -16 -63 -86 -111 -123 -84 -13 10 -63 0 -63 -13 0 -5 -10 -9 -22
-9 -13 -1 -34 -7 -48 -15 l-25 -14 28 -1 c41 0 65 -15 128 -81 113 -117 158
-188 255 -405 31 -71 56 -207 50 -274 -6 -63 -12 -168 -21 -332 -4 -85 10
-107 20 -30 30 238 55 359 86 409 85 137 190 286 197 279 4 -5 72 -394 77
-444 12 -113 30 -226 46 -287 11 -38 19 -98 19 -133 0 -35 4 -93 10 -130 5
-37 14 -114 20 -172 11 -105 17 -147 44 -315 70 -423 87 -1103 36 -1343 -7
-30 -16 -50 -20 -45 -12 11 -15 364 -5 494 5 72 3 139 -5 210 -7 57 -14 162
-16 232 -2 151 -10 225 -29 287 -7 25 -21 101 -30 170 -9 68 -21 131 -26 140
-7 10 -8 -1 -4 -35 4 -27 9 -70 11 -95 2 -25 13 -94 25 -155 26 -131 39 -276
27 -289 -5 -6 -8 -6 -8 1 0 18 -20 66 -25 61 -3 -2 4 -54 14 -114 11 -60 21
-163 23 -229 3 -66 3 -102 0 -80 -4 40 -4 40 -17 15 -14 -24 -14 -24 -15 -3 0
12 -4 25 -10 28 -5 3 -10 16 -10 28 0 12 -5 29 -11 37 -9 12 -10 11 -4 -5 3
-10 15 -112 27 -225 21 -213 24 -372 9 -500 -5 -45 -5 -82 1 -93 5 -10 8 -28
7 -40 -4 -37 11 -76 27 -70 11 4 14 28 14 104 0 59 4 99 10 99 6 0 10 -51 10
-134 0 -90 7 -173 21 -253 24 -142 20 -205 -20 -260 -15 -21 -46 -75 -69 -120
l-42 -83 1345 0 1345 0 0 728 0 727 -48 19 c-50 21 -188 101 -210 123 -7 7
-17 13 -21 13 -4 0 -16 8 -27 18 -23 21 -118 82 -128 82 -10 0 -125 81 -204
143 -67 53 -117 119 -108 143 11 29 49 13 105 -42 60 -60 184 -153 371 -277
41 -28 105 -72 141 -99 37 -26 69 -48 73 -48 12 0 44 -39 38 -46 -4 -4 -1 -4
6 0 9 6 12 179 12 813 0 696 -2 804 -14 800 -8 -3 -34 -11 -58 -17 -77 -21
-172 -73 -219 -120 -43 -44 -109 -131 -109 -145 0 -3 -24 -43 -53 -88 -58 -89
-112 -183 -168 -292 -38 -74 -58 -88 -90 -59 -27 24 -24 64 9 110 15 21 36 59
47 84 11 25 23 47 27 50 4 3 14 22 23 43 17 42 122 204 153 238 12 12 22 28
22 35 0 18 128 144 147 144 5 0 15 9 23 20 8 11 22 20 32 20 10 0 26 4 36 9
38 19 88 30 111 24 20 -5 23 -3 18 12 -7 18 2 18 46 0 16 -7 17 79 17 1719 l0
1726 -3125 0 -3125 0 0 -1530z m4014 1320 c-7 -7 -19 -7 -35 -1 -23 9 -22 10
11 10 23 1 31 -2 24 -9z m36 -52 c-16 -15 -24 -18 -33 -9 -14 14 0 26 34 28
l22 2 -23 -21z m10 -47 c0 -14 -18 -23 -30 -16 -6 4 -8 11 -5 16 8 12 35 12
35 0z m28 -96 c-11 -9 -58 -14 -58 -6 0 10 39 20 53 13 5 -2 7 -5 5 -7z m38
-103 c33 -22 46 -115 22 -167 -12 -26 -24 -30 -47 -16 -10 7 -11 13 -1 30 13
26 10 107 -5 104 -5 -1 -13 -30 -16 -64 -7 -66 -23 -89 -64 -89 -46 0 -73 71
-54 142 7 29 15 38 27 36 14 -3 16 -13 14 -55 -2 -28 1 -54 6 -57 12 -7 19 14
21 64 2 48 25 80 59 80 15 0 32 -4 38 -8z m264 -135 c0 -5 -4 -5 -10 -2 -5 3
-10 14 -10 23 0 15 2 15 10 2 5 -8 10 -19 10 -23z m-370 -107 c6 -24 9 -25 81
-25 l74 0 0 -29 c0 -25 -4 -30 -30 -33 -116 -12 -115 -12 -112 -45 2 -33 -24
-61 -42 -43 -12 12 -26 167 -17 190 9 24 39 14 46 -15z m45 1 c3 -5 1 -12 -5
-16 -5 -3 -10 1 -10 9 0 18 6 21 15 7z m311 -89 c-3 -22 -1 -30 6 -26 7 5 9 1
5 -9 -4 -11 -1 -17 7 -17 9 0 13 -10 11 -30 -1 -17 1 -33 5 -35 5 -3 7 -21 5
-40 -2 -19 1 -32 6 -29 5 3 9 0 9 -5 0 -6 -4 -11 -10 -11 -5 0 -10 -4 -10 -10
0 -5 7 -7 15 -4 12 5 15 -2 15 -28 0 -19 6 -40 13 -47 10 -11 8 -12 -11 -6
-22 6 -23 5 -16 -17 4 -12 8 -33 9 -45 0 -24 10 -30 20 -13 3 6 12 10 18 10 7
0 4 -7 -5 -14 -10 -7 -18 -23 -18 -34 0 -12 8 -26 18 -31 15 -9 15 -10 0 -11
-9 0 -18 3 -20 8 -13 28 -217 176 -271 194 -17 7 -42 17 -56 24 -13 7 -51 21
-83 30 -32 10 -58 21 -58 24 0 4 18 21 40 39 23 18 37 37 34 43 -4 6 -2 8 4 4
6 -3 32 7 58 24 26 16 51 30 56 30 4 0 27 13 50 29 24 15 66 41 93 58 l50 29
8 -25 c4 -14 6 -41 3 -59z m577 -31 c21 -13 36 -25 34 -28 -7 -6 -57 19 -57
29 0 4 -7 8 -15 8 -8 0 -15 5 -15 11 0 12 2 12 53 -20z m-848 -11 c-3 -5 -12
-10 -18 -10 -7 0 -6 4 3 10 19 12 23 12 15 0z m423 -244 c9 -10 19 -67 28
-149 2 -20 10 -72 19 -115 8 -42 24 -126 35 -187 12 -60 23 -122 26 -137 5
-22 3 -26 -13 -22 -19 5 -17 -6 -105 414 -17 80 -33 162 -35 182 -5 33 -3 36
16 31 11 -3 24 -10 29 -17z m-304 -57 c3 -34 6 -76 6 -93 l0 -32 -92 -12 c-51
-6 -96 -8 -100 -4 -4 4 -10 45 -14 91 -6 66 -4 85 7 92 25 15 28 10 35 -61 5
-51 10 -70 21 -70 12 0 14 12 11 58 -3 53 -1 57 20 60 18 3 22 -1 22 -21 0
-48 12 -87 28 -87 12 0 14 12 10 70 -5 67 -4 70 17 70 20 0 23 -7 29 -61z
m-1803 -105 c11 -14 10 -15 -11 -12 -13 1 -25 9 -28 16 -5 17 23 15 39 -4z
m-71 -4 c0 -5 -4 -10 -10 -10 -5 0 -10 5 -10 10 0 6 5 10 10 10 6 0 10 -4 10
-10z m20 -45 c0 -9 -6 -12 -15 -9 -8 4 -15 10 -15 15 0 5 7 9 15 9 8 0 15 -7
15 -15z m1849 -13 c18 -14 24 -33 30 -97 5 -44 7 -83 5 -87 -2 -3 -32 -9 -66
-12 -35 -4 -79 -9 -99 -12 l-36 -5 -7 81 c-9 99 5 130 57 130 17 0 39 5 47 10
22 15 45 12 69 -8z m-1839 -27 c0 -8 -4 -15 -10 -15 -5 0 -10 7 -10 15 0 8 5
15 10 15 6 0 10 -7 10 -15z m-1020 -31 c0 -8 -5 -12 -10 -9 -6 4 -8 11 -5 16
9 14 15 11 15 -7z m2417 -81 c-9 -9 -19 -14 -23 -11 -10 10 6 28 24 28 15 0
15 -1 -1 -17z m1157 -67 c27 -26 47 -48 45 -51 -7 -6 -18 4 -74 65 -56 60 -45
55 29 -14z m-629 -66 c3 -5 -4 -11 -17 -11 l-23 -2 23 -4 c28 -5 29 -23 1 -23
-11 0 -18 -4 -15 -8 2 -4 24 -6 48 -4 36 4 40 6 21 13 -13 5 -23 15 -23 24 0
20 28 31 43 16 8 -8 6 -11 -8 -12 -18 0 -18 -1 3 -11 13 -6 21 -19 20 -27 -3
-13 -18 -16 -71 -17 -37 -1 -71 -4 -74 -8 -10 -9 -43 -7 -43 3 0 5 8 11 17 13
12 2 10 6 -11 16 -26 12 -28 11 -23 -7 8 -34 -8 -46 -32 -22 -15 15 -21 17
-21 7 0 -20 -14 -27 -61 -31 -22 -1 -43 -5 -46 -9 -4 -3 -18 -6 -32 -5 l-26 0
25 11 c25 11 25 11 3 15 -40 7 -24 53 18 53 17 0 9 -20 -8 -21 -15 0 -15 -2 2
-9 32 -14 38 -11 32 11 -4 15 1 22 19 30 32 11 34 11 34 -1 0 -5 -7 -10 -15
-10 -8 0 -15 -4 -15 -10 0 -5 9 -10 20 -10 11 0 20 7 20 15 0 24 31 31 46 10
13 -18 14 -18 14 1 0 18 7 21 48 21 26 1 39 -1 30 -4 -24 -6 -23 -19 2 -26 15
-4 20 0 20 13 0 16 11 24 42 29 4 0 10 -3 13 -9z m719 -7 c4 -4 19 -9 33 -11
15 -2 34 -7 43 -12 9 -5 27 -6 38 -3 12 3 28 0 36 -6 7 -6 45 -12 85 -13 39
-1 71 -6 71 -10 0 -4 10 -7 23 -7 68 3 360 -53 412 -78 34 -17 83 -68 95 -99
11 -27 24 -134 17 -134 -3 0 -14 24 -23 54 -19 61 -58 107 -112 135 -33 16
-170 47 -362 80 -268 47 -329 60 -358 75 -17 9 -32 21 -32 26 0 12 23 13 34 3z
m-626 -120 c-21 -2 -55 -2 -75 0 -21 2 -4 4 37 4 41 0 58 -2 38 -4z m-155 -10
c-13 -2 -35 -2 -50 0 -16 2 -5 4 22 4 28 0 40 -2 28 -4z m-110 -10 c-7 -2 -21
-2 -30 0 -10 3 -4 5 12 5 17 0 24 -2 18 -5z m-1599 -38 c-4 -8 -8 -15 -10 -15
-2 0 -4 7 -4 15 0 8 4 15 10 15 5 0 7 -7 4 -15z m-17 -57 c-3 -8 -6 -5 -6 6
-1 11 2 17 5 13 3 -3 4 -12 1 -19z m-357 -159 c0 -6 -4 -7 -10 -4 -5 3 -10 11
-10 16 0 6 5 7 10 4 6 -3 10 -11 10 -16z m3944 -151 c-8 -25 -46 -80 -51 -74
-4 4 49 96 55 96 2 0 0 -10 -4 -22z m-1004 -32 c0 -15 -24 -28 -34 -19 -7 7
13 33 25 33 5 0 9 -6 9 -14z m-4666 -31 c14 -36 -18 -61 -59 -45 -18 7 -25 17
-25 35 0 22 4 25 39 25 25 0 41 -5 45 -15z m5599 -45 c-3 -11 -9 -20 -13 -20
-5 0 -32 -24 -62 -54 -50 -50 -128 -105 -128 -88 1 4 27 27 60 51 32 24 78 64
101 88 24 23 44 43 45 43 1 0 0 -9 -3 -20z m-915 -24 c3 -14 -1 -17 -16 -12
-13 4 -22 1 -25 -8 -7 -18 6 -28 26 -20 24 9 28 -12 7 -31 -12 -11 -26 -14
-39 -10 -28 8 -30 79 -3 94 24 15 46 9 50 -13z m666 -1 c-4 -8 -13 -15 -22
-15 -8 0 -12 -3 -9 -6 12 -12 -43 -46 -76 -48 -22 -1 -32 4 -35 16 -2 12 7 20
35 28 21 6 49 17 63 25 33 19 51 19 44 0z m-1718 -153 c-4 -3 -14 2 -24 12
-16 18 -16 18 6 6 13 -6 21 -14 18 -18z m94 -43 c0 -10 -55 -49 -69 -49 -28 0
-4 70 29 82 14 5 40 -16 40 -33z m146 -14 c6 -24 0 -44 -10 -34 -11 11 -17 59
-7 59 6 0 13 -11 17 -25z m-85 -46 c-13 -11 -26 -17 -29 -14 -7 6 29 34 43 34
6 0 -1 -9 -14 -20z m129 11 c0 -5 -7 -10 -15 -10 -8 0 -15 5 -15 10 0 6 7 10
15 10 8 0 15 -4 15 -10z m-74 -37 c-10 -10 -19 5 -10 18 6 11 8 11 12 0 2 -7
1 -15 -2 -18z m39 -3 c3 -11 10 -20 15 -20 5 0 7 -7 4 -15 -4 -8 -1 -15 7 -15
7 0 10 -3 7 -6 -13 -12 -58 29 -58 52 0 29 16 32 25 4z m25 16 c0 -3 -4 -8
-10 -11 -5 -3 -10 -1 -10 4 0 6 5 11 10 11 6 0 10 -2 10 -4z m-160 -15 c0 -6
-4 -13 -10 -16 -5 -3 -10 1 -10 9 0 9 5 16 10 16 6 0 10 -4 10 -9z m0 -35 c0
-3 -4 -8 -10 -11 -5 -3 -10 -1 -10 4 0 6 5 11 10 11 6 0 10 -2 10 -4z m110
-24 c8 -4 15 -11 16 -17 1 -32 19 -65 37 -71 21 -6 66 -51 67 -66 0 -4 -11 -7
-25 -6 -25 2 -35 17 -12 19 9 0 9 2 -1 6 -6 2 -10 9 -6 14 5 8 -3 11 -22 8 -4
0 -11 5 -15 13 -7 10 -9 9 -9 -4 0 -10 5 -18 10 -18 6 0 10 -6 10 -14 0 -8 7
-21 15 -29 12 -13 12 -16 0 -20 -14 -6 -28 6 -38 33 -3 8 -4 -9 -2 -39 2 -39
8 -59 21 -68 17 -12 17 -13 -2 -14 -16 -1 -17 -2 -1 -6 19 -5 23 -19 5 -25 -7
-3 -4 -11 9 -24 21 -19 30 -84 12 -84 -5 0 -9 10 -9 22 0 14 -4 18 -9 13 -17
-18 -18 -90 -1 -80 6 3 10 1 10 -4 0 -6 -8 -11 -17 -11 -13 0 -14 -3 -5 -8 7
-5 10 -22 8 -40 -2 -17 -1 -34 3 -37 3 -4 6 -26 6 -51 1 -30 -3 -44 -12 -44
-16 0 -17 -12 -3 -26 12 -12 2 -126 -10 -119 -4 2 -6 17 -4 32 3 16 -3 7 -11
-19 -16 -50 -35 -64 -35 -26 0 21 -1 21 -13 3 -10 -13 -16 -15 -21 -6 -4 6 -2
19 6 28 9 12 9 15 1 9 -10 -5 -13 3 -13 31 0 21 -5 55 -11 77 -8 27 -8 41 0
49 8 8 11 5 11 -11 0 -12 4 -22 10 -22 5 0 7 7 4 15 -4 8 -1 15 5 15 7 0 7 8
1 26 -6 14 -8 30 -4 35 3 5 -4 9 -15 9 -12 0 -21 -5 -21 -12 0 -6 -2 -9 -5 -6
-3 3 2 23 12 43 14 29 15 39 6 42 -17 6 -16 24 6 113 13 53 15 79 8 88 -8 10
-7 16 1 21 17 10 5 38 -19 44 -10 3 -19 10 -19 16 0 7 8 7 25 1 30 -12 32 -1
5 23 -12 10 -18 22 -15 27 3 5 -3 13 -13 19 -26 14 -21 71 9 109 23 30 49 38
79 24z m-170 -30 c0 -15 -2 -15 -10 -2 -13 20 -13 33 0 25 6 -3 10 -14 10 -23z
m104 -288 c9 -22 8 -24 -9 -24 -8 0 -15 9 -15 20 0 24 15 27 24 4z m-228 -313
c6 -44 4 -53 -7 -49 -10 3 -15 24 -16 69 -3 75 12 62 23 -20z m1205 20 c36
-36 39 -43 39 -95 0 -67 -26 -125 -65 -146 -26 -14 -29 -13 -51 13 -21 24 -24
38 -23 100 1 40 5 83 9 97 5 15 6 -11 3 -65 -3 -49 -2 -87 2 -83 7 7 11 47 13
161 2 70 17 74 73 18z m-1014 -13 c-3 -8 -6 -5 -6 6 -1 11 2 17 5 13 3 -3 4
-12 1 -19z m203 -22 c0 -3 -4 -8 -10 -11 -5 -3 -10 -1 -10 4 0 6 5 11 10 11 6
0 10 -2 10 -4z m20 -46 c0 -5 -4 -10 -10 -10 -5 0 -10 5 -10 10 0 6 5 10 10
10 6 0 10 -4 10 -10z m-190 -140 c0 -5 -4 -10 -10 -10 -5 0 -10 5 -10 10 0 6
5 10 10 10 6 0 10 -4 10 -10z m35 -42 c5 4 5 1 1 -5 -10 -19 -36 -16 -36 3 0
13 3 14 13 5 8 -6 18 -7 22 -3z m-35 -41 c0 -19 -27 -53 -35 -45 -4 4 1 18 12
32 21 29 23 31 23 13z m42 -21 c7 5 9 0 6 -13 -3 -11 -1 -27 3 -36 6 -10 5
-18 -1 -22 -6 -3 -10 3 -10 15 0 15 -5 20 -15 17 -17 -7 -30 9 -15 18 5 3 11
18 11 33 2 24 2 24 6 4 3 -13 9 -19 15 -16z m1308 -16 c23 -14 19 -96 -7 -121
l-21 -21 -11 21 c-17 31 -1 99 20 86 5 -4 9 3 9 15 0 12 -4 18 -10 15 -5 -3
-10 -1 -10 4 0 13 10 14 30 1z m194 -84 c-3 -8 -13 -17 -22 -21 -13 -5 -13 -2
3 15 21 24 26 25 19 6z m-45 -68 c-8 -14 -14 -18 -17 -10 -4 13 17 46 25 38 3
-2 -1 -15 -8 -28z m-1539 -14 c0 -17 17 -19 23 -1 3 9 7 9 18 1 25 -19 59 -24
59 -7 0 8 5 11 11 7 6 -4 8 -20 4 -40 -3 -19 -2 -34 3 -34 15 0 21 -38 8 -45
-8 -3 -8 -7 2 -11 6 -3 12 -12 12 -20 0 -9 -4 -12 -10 -9 -6 3 -10 -4 -10 -17
l0 -22 -16 22 c-8 12 -20 20 -25 17 -5 -3 -7 0 -4 7 3 7 1 27 -4 43 -9 28 -9
27 -10 -18 -1 -57 -13 -54 -37 11 -10 26 -21 49 -26 52 -13 10 -23 94 -10 86
7 -4 12 -14 12 -22z m-130 -4 c0 -5 -4 -10 -9 -10 -6 0 -13 5 -16 10 -3 6 1
10 9 10 9 0 16 -4 16 -10z m1211 -126 c25 -27 75 -73 111 -103 84 -68 103
-101 90 -159 -14 -60 -51 -110 -91 -123 -35 -12 -111 -6 -170 13 -29 9 -36 8
-48 -8 -12 -16 -13 -16 -13 9 0 15 -4 27 -10 27 -5 0 -6 7 -3 17 4 9 2 14 -3
10 -6 -3 -18 30 -28 78 -16 79 -16 91 -1 182 9 54 20 109 25 123 4 14 11 34
15 45 5 18 10 16 43 -21 20 -22 58 -63 83 -90z m409 68 c0 -10 -6 -26 -14 -37
-7 -11 -43 -77 -79 -147 -36 -69 -68 -123 -71 -120 -3 3 -6 0 -6 -6 0 -7 -5
-12 -10 -12 -13 0 -7 53 9 93 6 16 11 30 11 33 0 3 11 17 25 31 13 15 27 40
31 56 4 19 11 27 20 23 10 -4 14 2 14 19 0 14 6 25 13 25 6 0 18 14 25 30 15
33 32 40 32 12z m-1283 -64 c-3 -8 -6 -5 -6 6 -1 11 2 17 5 13 3 -3 4 -12 1
-19z m-30 -45 c-3 -10 -5 -2 -5 17 0 19 2 27 5 18 2 -10 2 -26 0 -35z m-287
-67 c0 -8 -4 -17 -9 -21 -12 -7 -24 12 -16 25 9 15 25 12 25 -4z m210 -46 c0
-5 -2 -10 -4 -10 -3 0 -8 5 -11 10 -3 6 -1 10 4 10 6 0 11 -4 11 -10z m40
-146 c0 -8 -5 -12 -10 -9 -6 4 -8 11 -5 16 9 14 15 11 15 -7z m67 -170 c26
-26 25 -46 -2 -24 -18 15 -39 50 -30 50 3 0 17 -12 32 -26z m-77 -118 c0 -3
-4 -8 -10 -11 -5 -3 -10 -1 -10 4 0 6 5 11 10 11 6 0 10 -2 10 -4z m35 -55
c-3 -6 4 -15 15 -21 11 -6 20 -18 20 -28 1 -14 4 -13 19 6 25 29 31 28 31 -9
0 -23 -4 -30 -14 -26 -8 3 -17 1 -20 -6 -3 -9 -7 -8 -15 3 -5 8 -14 11 -18 6
-4 -4 0 -14 10 -21 16 -11 17 -17 6 -37 -18 -35 -33 -40 -41 -15 -10 37 -9 92
4 105 9 9 9 12 0 12 -7 0 -12 9 -12 20 0 11 5 20 11 20 5 0 8 -4 4 -9z m-238
-67 c-3 -3 -12 -4 -19 -1 -8 3 -5 6 6 6 11 1 17 -2 13 -5z m1216 -34 c29 -21
69 -46 89 -54 92 -39 121 -96 92 -182 -21 -63 -46 -89 -102 -108 -56 -20 -96
-20 -111 -2 -14 16 -46 181 -56 284 -5 51 -4 77 5 87 18 22 25 19 83 -25z
m147 -10 c0 -5 -2 -10 -4 -10 -3 0 -8 5 -11 10 -3 6 -1 10 4 10 6 0 11 -4 11
-10z m54 -63 c6 3 8 3 4 -2 -4 -4 4 -18 19 -31 15 -13 24 -27 19 -31 -4 -4
-27 14 -52 40 -36 37 -44 51 -38 69 6 20 8 19 21 -15 9 -22 20 -34 27 -30z
m-1134 -1 c0 -3 -4 -8 -10 -11 -5 -3 -10 -1 -10 4 0 6 5 11 10 11 6 0 10 -2
10 -4z m1219 -86 c4 0 17 -9 29 -20 12 -11 30 -21 41 -23 11 -2 29 -11 40 -21
11 -10 25 -15 31 -11 6 3 9 3 8 -2 -4 -14 33 -63 48 -63 8 0 14 -4 14 -9 0 -5
8 -12 18 -16 23 -8 66 -44 60 -51 -7 -6 -170 103 -250 167 -34 27 -66 49 -71
49 -5 0 -3 7 4 17 13 15 14 15 17 0 2 -10 7 -17 11 -17z m-1472 -172 c-3 -8
-6 -5 -6 6 -1 11 2 17 5 13 3 -3 4 -12 1 -19z m8 -239 c10 -15 -1 -23 -20 -15
-9 3 -13 10 -10 16 8 13 22 13 30 -1z m350 -580 c12 -18 -3 -22 -20 -5 -14 14
-14 16 -1 16 8 0 18 -5 21 -11z m69 -45 c9 -22 -3 -32 -14 -14 -12 19 -12 30
-1 30 5 0 12 -7 15 -16z m-97 -16 c-3 -8 -6 -5 -6 6 -1 11 2 17 5 13 3 -3 4
-12 1 -19z m343 -638 c0 -5 -2 -10 -4 -10 -3 0 -8 5 -11 10 -3 6 -1 10 4 10 6
0 11 -4 11 -10z"/>
<path d="M4390 5639 c0 -5 5 -7 10 -4 6 3 10 8 10 11 0 2 -4 4 -10 4 -5 0 -10
-5 -10 -11z"/>
<path d="M4167 5213 c-2 -5 -2 -27 1 -50 3 -33 8 -43 22 -43 16 0 18 6 14 38
-3 20 -7 43 -10 50 -4 13 -20 16 -27 5z"/>
<path d="M4092 5164 c2 -28 8 -49 16 -52 10 -3 12 8 10 44 -2 28 -8 49 -16 52
-10 3 -12 -8 -10 -44z"/>
<path d="M4054 4919 c-3 -5 7 -9 22 -9 15 0 24 3 20 7 -11 11 -35 12 -42 2z"/>
<path d="M4260 3732 c0 -11 7 -22 15 -26 9 -3 15 0 15 8 0 7 -7 19 -15 26 -12
10 -15 9 -15 -8z"/>
<path d="M4300 3405 c0 -8 2 -15 4 -15 2 0 6 7 10 15 3 8 1 15 -4 15 -6 0 -10
-7 -10 -15z"/>
<path d="M2201 4464 c0 -11 3 -14 6 -6 3 7 2 16 -1 19 -3 4 -6 -2 -5 -13z"/>
<path d="M1824 4079 c87 -29 123 -34 119 -14 -2 6 -11 11 -20 12 -10 1 -44 8
-76 17 -102 28 -118 17 -23 -15z"/>
<path d="M1568 4063 c6 -2 18 -2 25 0 6 3 1 5 -13 5 -14 0 -19 -2 -12 -5z"/>
<path d="M1443 4037 c-46 -11 -83 -25 -83 -29 0 -5 32 -7 70 -4 39 3 70 2 70
-3 0 -12 -137 -34 -178 -27 -20 3 -31 3 -24 0 23 -11 12 -24 -21 -24 -26 0
-36 -6 -45 -25 -6 -14 -18 -25 -27 -25 -8 0 -15 -4 -15 -10 0 -5 0 -13 0 -17
0 -5 6 -8 13 -8 6 0 12 -7 12 -15 0 -8 -6 -14 -12 -13 -7 2 -13 -1 -13 -6 0
-5 6 -11 13 -14 9 -3 9 -9 0 -25 -16 -27 -7 -50 20 -54 19 -3 22 -8 18 -43 -1
-22 -7 -43 -13 -46 -15 -10 1 -52 28 -72 13 -10 24 -14 24 -9 0 6 17 13 37 17
41 7 62 29 63 63 0 12 4 22 9 22 4 0 26 14 47 31 29 23 46 29 69 26 16 -2 39
-1 51 3 14 6 66 -3 150 -25 125 -33 217 -42 258 -26 27 11 115 -5 136 -24 11
-10 31 -15 48 -14 16 2 36 -2 44 -9 9 -7 22 -10 30 -7 8 3 28 1 44 -6 16 -6
83 -13 149 -15 185 -6 223 -12 230 -35 4 -10 13 -19 22 -19 16 0 13 -42 -9
-128 -14 -54 -5 -63 17 -20 13 24 18 61 20 136 2 98 3 105 34 147 32 44 25 61
-10 29 -17 -15 -18 -14 -24 12 -4 16 -8 35 -11 42 -2 8 -25 12 -66 12 -71 0
-130 -14 -152 -35 -30 -31 -143 -48 -276 -42 -162 8 -219 25 -252 74 -13 21
-27 46 -31 56 -8 21 -25 22 -64 2 -38 -19 -228 -31 -264 -17 -21 8 -26 16 -22
35 3 14 16 30 29 36 13 6 23 16 22 23 -4 15 56 27 139 27 50 1 61 4 57 15 -3
8 -24 18 -46 21 -54 9 -104 31 -129 56 -17 17 -25 18 -57 9 -49 -13 -52 -13
-46 5 4 8 5 15 3 14 -2 -1 -41 -11 -86 -22z m-93 -157 c0 -5 -2 -10 -4 -10 -3
0 -8 5 -11 10 -3 6 -1 10 4 10 6 0 11 -4 11 -10z m-100 -74 c0 -3 -4 -8 -10
-11 -5 -3 -10 -1 -10 4 0 6 5 11 10 11 6 0 10 -2 10 -4z m589 -22 c10 -9 -265
-3 -279 7 -10 7 29 8 130 3 80 -3 147 -8 149 -10z m-491 -73 c6 0 12 -5 12
-10 0 -5 -20 -11 -45 -13 -35 -2 -45 0 -45 12 0 14 19 17 78 11z m1102 -17 c0
-8 -4 -12 -10 -9 -5 3 -10 10 -10 16 0 5 5 9 10 9 6 0 10 -7 10 -16z"/>
<path d="M1880 4020 c20 -13 40 -13 40 0 0 6 -12 10 -27 10 -22 0 -25 -2 -13
-10z"/>
<path d="M1860 3950 c0 -5 4 -10 9 -10 6 0 13 5 16 10 3 6 -1 10 -9 10 -9 0
-16 -4 -16 -10z"/>
<path d="M1230 3462 c-14 -2 -32 -12 -39 -24 -11 -18 -11 -22 3 -30 9 -5 16
-14 16 -19 0 -6 -5 -7 -11 -3 -7 4 -10 1 -7 -7 8 -24 38 -23 38 0 0 12 14 34
32 50 28 25 29 28 12 32 -10 2 -30 3 -44 1z"/>
<path d="M1993 3415 c0 -22 2 -30 4 -17 2 12 2 30 0 40 -3 9 -5 -1 -4 -23z"/>
<path d="M2646 3344 c-4 -9 -4 -19 -1 -22 2 -3 7 3 11 12 4 9 4 19 1 22 -2 3
-7 -3 -11 -12z"/>
<path d="M983 3339 c-6 -6 -9 -18 -6 -26 3 -8 2 -18 -3 -22 -18 -12 -59 -151
-45 -151 4 0 18 14 31 31 14 17 40 48 58 68 36 43 40 70 14 94 -22 20 -34 21
-49 6z"/>
<path d="M1200 3306 c0 -16 -4 -25 -10 -21 -17 11 -72 -35 -67 -56 3 -11 0
-16 -8 -13 -7 3 -22 -11 -34 -31 l-21 -37 50 7 c35 5 55 3 66 -5 20 -17 31 -4
16 20 -7 12 -8 21 -2 25 6 4 13 -1 16 -10 5 -12 9 -13 20 -4 8 6 14 8 14 3 1
-9 26 34 30 48 1 4 5 21 10 38 5 18 5 30 -1 30 -5 0 -9 -11 -9 -24 0 -14 -4
-28 -10 -31 -5 -3 -10 0 -10 7 0 8 -11 29 -25 48 l-25 34 0 -28z m17 -68 c-3
-8 -6 -5 -6 6 -1 11 2 17 5 13 3 -3 4 -12 1 -19z"/>
<path d="M2630 3270 c0 -11 2 -20 4 -20 2 0 6 9 9 20 3 11 1 20 -4 20 -5 0 -9
-9 -9 -20z"/>
<path d="M1330 3230 c0 -5 5 -10 11 -10 5 0 7 5 4 10 -3 6 -8 10 -11 10 -2 0
-4 -4 -4 -10z"/>
<path d="M2515 3194 c-44 -13 -87 -24 -97 -24 -10 0 -15 -6 -12 -17 3 -10 -7
-31 -20 -47 -25 -28 -52 -93 -43 -102 2 -2 17 0 32 6 36 14 58 6 90 -31 20
-24 25 -41 25 -83 0 -53 -15 -86 -55 -118 -12 -9 -30 -32 -40 -52 -11 -20 -23
-36 -27 -36 -5 0 -8 -9 -8 -20 0 -17 5 -19 25 -14 19 5 25 2 25 -10 0 -9 -7
-16 -15 -16 -8 0 -15 -4 -15 -10 0 -5 -7 -10 -15 -10 -8 0 -15 4 -15 9 0 5 -8
7 -18 4 -10 -2 -29 0 -44 6 -20 8 -28 19 -33 51 -9 51 6 71 25 35 7 -14 17
-25 22 -25 5 0 1 12 -10 28 -10 15 -25 43 -32 62 -7 19 -17 40 -22 47 -5 6 -6
24 -3 40 5 24 5 26 -6 9 -8 -14 -9 -28 0 -56 19 -65 16 -85 -33 -190 -6 -13
-19 -33 -29 -43 -10 -10 -26 -37 -36 -60 -10 -23 -32 -59 -49 -80 -17 -21 -34
-47 -37 -57 -3 -11 -12 -17 -19 -14 -8 3 -20 -4 -28 -15 l-15 -21 -11 23 c-6
12 -15 60 -20 107 l-9 85 -2 -75 c-2 -102 -12 -181 -22 -174 -5 3 -9 14 -9 25
0 11 -4 17 -10 14 -5 -3 -10 1 -10 10 0 9 -6 15 -12 13 -8 -3 -18 -38 -24 -84
-12 -85 -18 -76 -14 23 1 35 -1 81 -5 104 -6 36 -10 40 -31 36 -13 -2 -21 -1
-19 3 3 4 -13 10 -34 14 -21 3 -44 13 -51 21 -10 12 -15 13 -20 4 -5 -8 -14
-5 -29 10 -20 20 -51 29 -51 14 0 -5 -18 -9 -39 -10 -32 -2 -40 1 -44 19 -5
16 -11 19 -31 14 -14 -3 -28 -2 -31 4 -3 6 4 10 17 11 17 0 13 4 -17 15 -31
12 -49 13 -82 4 -68 -16 -63 -13 47 42 116 56 115 56 108 63 -2 3 -46 -14 -96
-36 -83 -36 -122 -43 -107 -18 4 5 -1 9 -9 9 -8 0 -18 -4 -21 -10 -8 -13 -35
-13 -35 0 0 8 95 93 166 148 16 12 -23 -12 -87 -53 -64 -41 -120 -75 -125 -75
-5 0 0 7 10 15 28 21 12 30 -18 10 -37 -25 -51 -15 -26 18 12 16 20 31 17 34
-9 8 -27 -7 -27 -23 0 -20 -18 -17 -32 5 -6 10 -17 17 -24 14 -7 -2 -14 4 -16
14 -3 16 -5 16 -16 -4 -11 -20 -10 -23 3 -23 9 0 14 -4 11 -9 -3 -5 -15 -7
-27 -4 -12 3 -25 0 -29 -7 -6 -9 -12 -9 -29 -1 -11 7 -21 16 -21 21 0 6 -11
10 -24 10 -13 0 -35 9 -50 21 -24 19 -53 18 -41 -2 4 -5 -3 -9 -14 -9 -14 0
-21 -6 -21 -20 0 -11 -3 -20 -8 -20 -4 0 -12 -8 -17 -19 -6 -10 -21 -36 -35
-57 -14 -21 -33 -58 -42 -81 -19 -49 -78 -143 -90 -143 -4 0 -8 -5 -8 -11 0
-6 -16 -29 -36 -51 -19 -22 -44 -60 -55 -84 -10 -25 -39 -77 -64 -115 -25 -38
-45 -76 -45 -83 0 -7 -7 -19 -15 -26 -8 -7 -15 -20 -15 -29 0 -9 -18 -46 -39
-83 -36 -62 -65 -129 -66 -153 0 -6 -10 -26 -22 -45 -23 -38 -66 -153 -54
-146 4 3 17 25 29 49 30 61 46 73 80 61 18 -7 26 -16 24 -28 -2 -11 1 -15 7
-11 20 12 11 -20 -14 -50 l-24 -30 -1 29 c0 28 -1 27 -23 -15 -28 -52 -41 -99
-28 -99 5 0 12 6 14 13 3 6 6 3 6 -8 1 -13 8 -21 19 -21 9 -1 23 -3 31 -5 10
-3 17 6 21 26 3 17 11 29 18 28 6 -2 18 12 26 30 7 17 23 41 36 52 l22 20 -7
-45 c-4 -25 -9 -56 -12 -70 -2 -14 -16 -38 -31 -53 -15 -16 -22 -28 -17 -27
24 5 27 -1 10 -20 -10 -11 -27 -20 -38 -20 -14 0 -17 -5 -13 -16 5 -14 1 -16
-26 -10 -39 8 -37 5 -31 39 5 25 8 27 39 21 19 -3 34 -2 34 3 0 11 -88 35
-100 28 -5 -3 -11 -1 -14 3 -9 15 -56 1 -67 -19 -11 -22 -35 -25 -42 -6 -4 14
-37 -44 -37 -67 0 -12 7 -14 28 -10 44 9 82 -11 80 -41 -2 -19 -8 -25 -25 -25
-26 0 -29 10 -11 28 10 10 2 12 -40 11 l-52 -2 -48 -96 -47 -96 -3 -152 c-2
-107 0 -153 8 -153 7 0 8 -6 0 -19 -5 -11 -10 -77 -10 -148 l0 -128 47 -3 c26
-2 51 -6 57 -10 6 -3 21 -5 34 -3 25 3 30 -14 6 -23 -9 -3 -37 -6 -62 -7 l-47
-1 55 -24 c74 -33 86 -40 80 -49 -9 -14 -60 -14 -60 0 0 8 -8 11 -20 8 -14 -4
-20 0 -20 11 0 10 -6 13 -15 9 -9 -3 -25 3 -35 12 -19 18 -20 17 -20 -13 0
-26 4 -32 23 -32 26 -1 75 -38 61 -48 -13 -10 -11 -56 2 -73 6 -8 14 -26 17
-40 13 -51 43 -75 139 -109 51 -18 98 -36 103 -40 19 -13 80 -32 160 -48 62
-12 161 -16 443 -19 l363 -3 19 42 19 42 -30 13 c-19 8 -44 10 -72 5 -23 -5
-53 -5 -67 -2 -14 4 -40 5 -58 2 -25 -4 -32 -1 -32 12 0 20 -26 21 -34 1 -4
-12 -11 -13 -23 -7 -10 5 -23 8 -29 5 -6 -2 -17 4 -25 13 -13 16 -11 17 26 10
31 -5 36 -4 25 4 -12 9 -6 10 25 6 22 -4 60 -9 85 -12 l45 -5 -30 20 c-24 17
-26 21 -12 27 9 3 30 1 47 -4 26 -9 31 -8 40 9 6 11 8 24 5 29 -3 6 1 10 9 10
9 0 16 -5 16 -10 0 -7 6 -8 16 -2 22 12 102 -16 115 -40 8 -15 2 -34 -30 -93
l-40 -75 31 0 c18 0 36 8 44 18 13 16 13 16 14 0 0 -16 11 -18 80 -18 79 0 80
0 80 25 0 14 4 25 9 25 5 0 12 8 14 18 3 9 5 -2 6 -25 l1 -43 55 0 c52 0 55 1
55 25 0 20 5 25 25 25 18 0 25 5 25 19 0 14 5 18 20 14 12 -3 27 4 42 19 13
14 30 28 38 32 8 3 2 4 -14 0 -26 -5 -28 -4 -16 11 11 13 25 15 67 11 50 -5
74 7 36 17 -11 3 -6 5 11 6 21 1 27 -3 22 -14 -6 -18 15 -20 31 -4 8 8 15 6
25 -10 15 -25 24 -26 32 -5 4 11 -5 19 -32 30 -20 8 -47 20 -59 26 -11 6 -27
7 -34 3 -7 -5 -10 -4 -6 2 3 5 -23 20 -59 33 -35 13 -64 26 -64 28 0 5 49 113
62 136 13 24 19 57 23 126 3 51 12 110 30 202 11 54 46 86 95 86 22 1 49 4 60
7 15 5 18 3 14 -9 -14 -36 13 -12 42 37 63 108 162 444 194 657 6 41 18 100
25 130 26 107 36 251 33 477 -3 233 7 329 46 433 8 19 11 50 9 68 -3 19 -1 32
6 32 11 0 41 51 41 71 0 7 -8 4 -17 -7 -17 -18 -53 -31 -53 -19 0 11 64 65 77
65 7 0 13 6 13 14 0 8 7 16 15 20 8 3 15 12 15 20 0 8 11 50 24 93 35 114 70
278 63 297 -8 19 -3 20 -102 -10z m-1619 -529 c-11 -8 -22 -12 -25 -9 -6 6 19
24 34 24 6 -1 1 -7 -9 -15z m1379 -85 c3 -6 0 -10 -7 -10 -15 0 -38 19 -38 32
0 10 36 -8 45 -22z m-1155 -250 c0 -5 -7 -7 -15 -4 -8 4 -15 8 -15 10 0 2 7 4
15 4 8 0 15 -4 15 -10z m183 -145 c22 -4 37 -11 37 -20 0 -7 6 -16 13 -19 6
-3 1 -3 -13 1 -14 3 -41 7 -60 7 -22 1 -34 6 -32 14 1 6 -7 12 -18 12 -11 0
-20 4 -20 10 0 5 12 8 28 5 15 -2 44 -7 65 -10z m272 -107 c14 -6 25 -15 25
-20 0 -5 -13 -2 -30 7 -45 23 -41 34 5 13z m230 -349 l-16 -34 7 35 c7 41 16
59 21 44 2 -6 -3 -26 -12 -45z m-1345 11 c0 -5 -13 -10 -29 -10 -17 0 -33 5
-36 10 -4 6 8 10 29 10 20 0 36 -4 36 -10z m610 -44 c0 -2 -7 -9 -15 -16 -13
-11 -14 -10 -9 4 5 14 24 23 24 12z m711 -43 c-10 -17 -10 -16 -11 3 0 23 13
41 18 25 2 -6 -1 -18 -7 -28z m-688 20 c-8 -3 -11 -14 -8 -26 4 -15 -1 -26
-15 -35 -23 -14 -27 -1 -5 18 8 7 12 16 9 21 -7 12 4 29 19 28 9 0 9 -2 0 -6z
m57 -7 c0 -2 -7 -7 -16 -10 -8 -3 -12 -2 -9 4 6 10 25 14 25 6z m-108 -29 c-7
-8 -8 -18 -4 -23 4 -4 -1 -2 -11 5 -16 13 -16 14 0 26 22 16 30 11 15 -8z
m-43 -60 c0 -21 -1 -21 -9 -2 -12 28 -12 37 0 30 6 -3 10 -16 9 -28z m-142 17
c-3 -3 -12 -4 -19 -1 -8 3 -5 6 6 6 11 1 17 -2 13 -5z m43 -39 c-9 -11 -7 -12
10 -8 18 5 21 2 18 -13 -4 -25 -46 -31 -62 -8 -8 10 -21 15 -33 12 -18 -5 -19
-3 -9 17 6 13 13 22 16 20 3 -2 16 3 30 10 21 11 26 11 33 -1 5 -9 4 -21 -3
-29z m45 36 c3 -5 1 -12 -5 -16 -5 -3 -10 1 -10 9 0 18 6 21 15 7z m135 -16
c0 -8 -4 -15 -10 -15 -5 0 -10 7 -10 15 0 8 5 15 10 15 6 0 10 -7 10 -15z
m-35 -23 c-3 -3 -11 0 -18 7 -9 10 -8 11 6 5 10 -3 15 -9 12 -12z m-28 -24
c-3 -8 -6 -5 -6 6 -1 11 2 17 5 13 3 -3 4 -12 1 -19z m-160 -13 c0 -8 -4 -15
-9 -15 -4 0 -8 7 -8 15 0 8 4 15 8 15 5 0 9 -7 9 -15z m223 -11 c0 -2 -7 -4
-15 -4 -8 0 -15 4 -15 10 0 5 7 7 15 4 8 -4 15 -8 15 -10z m-726 -35 c-3 -5
-10 -7 -15 -3 -5 3 -7 10 -3 15 3 5 10 7 15 3 5 -3 7 -10 3 -15z m506 -13 c0
-3 -4 -8 -10 -11 -5 -3 -10 -1 -10 4 0 6 5 11 10 11 6 0 10 -2 10 -4z m137
-16 c-2 -24 -4 -24 -23 -6 -12 13 -12 15 4 19 9 3 18 5 19 6 1 0 1 -8 0 -19z
m-57 -40 c0 -5 -4 -10 -10 -10 -5 0 -10 5 -10 10 0 6 5 10 10 10 6 0 10 -4 10
-10z m40 -55 c-5 -7 -7 -15 -3 -19 4 -4 0 -4 -10 -1 -13 6 -14 11 -6 26 5 11
7 25 4 32 -4 6 1 3 9 -7 11 -13 12 -23 6 -31z m700 0 c0 -8 5 -15 10 -15 14 0
12 -57 -5 -138 -8 -38 -16 -105 -19 -148 -9 -138 -27 -224 -48 -224 -5 0 -9
20 -9 45 -3 66 -3 69 -12 76 -12 8 -16 108 -6 115 12 7 3 178 -10 182 -14 5
-2 32 15 32 8 0 17 7 20 15 4 8 12 15 19 15 16 0 27 27 15 35 -17 10 -11 25
10 25 11 0 20 -7 20 -15z m-1341 -77 c27 -17 27 -22 -8 -66 -24 -31 -86 -169
-124 -277 -5 -16 -13 -39 -17 -50 -4 -11 -15 -51 -24 -90 -29 -115 -32 -120
-97 -123 l-57 -3 23 66 c13 36 22 79 20 95 -2 17 1 33 9 37 21 13 43 55 51 98
4 22 13 47 20 55 7 8 25 44 40 79 14 35 37 81 51 102 13 21 24 46 24 54 0 9 5
25 10 35 11 20 33 17 79 -12z m608 -60 c-3 -8 -6 -5 -6 6 -1 11 2 17 5 13 3
-3 4 -12 1 -19z m-17 2 c0 -5 -4 -10 -10 -10 -5 0 -10 5 -10 10 0 6 5 10 10
10 6 0 10 -4 10 -10z m70 -10 c-19 -13 -30 -13 -30 0 0 6 10 10 23 10 18 0 19
-2 7 -10z m580 0 c0 -5 -5 -10 -11 -10 -5 0 -7 5 -4 10 3 6 8 10 11 10 2 0 4
-4 4 -10z m-598 -33 c4 -6 13 -4 23 6 21 21 29 22 21 1 -6 -15 -4 -15 20 1 30
20 43 12 26 -15 -11 -17 -10 -20 8 -20 23 0 26 -10 8 -28 -9 -9 -9 -12 -1 -12
7 0 15 5 19 11 4 8 9 7 15 -2 7 -11 9 -11 9 1 0 13 2 13 9 0 12 -18 3 -33 -14
-26 -13 5 -30 -22 -20 -32 3 -3 5 1 5 9 1 8 8 1 17 -16 10 -16 16 -33 15 -37
-1 -5 3 -8 8 -8 6 0 10 -5 10 -11 0 -6 -7 -8 -16 -5 -9 4 -22 2 -29 -4 -11 -9
-10 -17 2 -40 8 -16 19 -32 24 -36 6 -4 6 -11 -2 -20 -6 -8 -9 -17 -6 -21 4
-3 2 -13 -5 -20 -9 -11 -9 -17 3 -24 12 -7 12 -9 -2 -9 -11 0 -16 -9 -16 -30
0 -17 -5 -36 -11 -42 -9 -9 -12 -6 -12 12 0 22 -3 20 -35 -16 -19 -21 -43 -51
-52 -66 -10 -16 -22 -27 -28 -26 -14 2 -47 -13 -63 -29 -8 -7 -18 -11 -23 -8
-5 4 -9 -3 -9 -14 0 -29 -26 -17 -42 19 -12 28 -42 45 -61 33 -5 -3 5 -12 22
-20 29 -15 43 -43 21 -43 -5 0 -10 7 -10 17 0 9 -3 13 -7 10 -3 -4 -12 -2 -20
4 -9 8 -17 8 -26 0 -16 -13 -27 -5 -27 21 0 10 -4 18 -10 18 -5 0 -10 -5 -10
-10 0 -7 -6 -7 -20 0 -11 6 -20 19 -20 30 0 10 -5 22 -11 26 -7 4 -8 9 -1 13
16 9 1 63 -18 68 -15 4 -26 29 -30 71 -1 4 -10 10 -21 14 -20 8 -27 28 -9 28
6 0 10 5 10 11 0 6 -7 9 -15 5 -10 -3 -15 1 -15 12 0 14 8 17 36 16 20 -1 39
-7 43 -12 3 -6 19 -8 34 -5 19 4 25 8 16 13 -18 11 -3 40 21 40 36 0 17 34
-20 35 -17 0 -27 35 -11 35 6 0 11 -5 11 -11 0 -6 7 -9 15 -5 8 3 15 0 16 -7
0 -9 2 -9 5 0 3 7 12 9 20 6 7 -3 11 -10 7 -16 -3 -6 -1 -7 5 -3 7 4 12 13 12
21 0 7 8 21 17 31 10 9 17 29 17 45 -1 20 3 26 14 22 11 -5 13 -1 7 15 -5 19
-2 22 20 22 20 0 26 -4 21 -15 -3 -9 0 -15 9 -15 8 0 15 5 15 11 0 34 73 54
92 26z m-286 -30 c-4 -18 -4 -18 15 -1 18 16 19 16 19 -4 0 -26 -37 -31 -46
-7 -4 8 -15 15 -26 15 -10 0 -17 4 -14 9 3 5 17 8 31 7 20 -1 25 -5 21 -19z
m94 -29 c0 -19 -2 -20 -10 -8 -13 19 -13 30 0 30 6 0 10 -10 10 -22z m-135
-132 c12 -12 12 -16 -1 -26 -12 -11 -13 -10 -8 5 5 13 4 16 -4 11 -7 -4 -12
-1 -12 8 0 20 7 20 25 2z m-403 -28 c-7 -7 -12 -8 -12 -2 0 14 12 26 19 19 2
-3 -1 -11 -7 -17z m885 -15 c-3 -10 -5 -4 -5 12 0 17 2 24 5 18 2 -7 2 -21 0
-30z m-897 -62 c0 -5 -7 -11 -15 -15 -15 -5 -20 5 -8 17 9 10 23 9 23 -2z
m1384 -139 c-4 -9 -6 -37 -5 -62 1 -25 -3 -58 -10 -75 -6 -16 -15 -50 -20 -75
-4 -25 -12 -63 -19 -85 -6 -22 -15 -56 -20 -75 -8 -33 -41 -70 -61 -70 -19 0
-9 48 11 53 11 3 20 11 20 19 0 11 -2 11 -9 -1 -6 -9 -11 -10 -15 -2 -4 6 0
14 8 17 9 3 14 10 11 14 -3 5 -1 11 5 15 6 4 8 10 5 15 -6 10 14 51 31 62 6 4
10 23 8 43 -1 19 2 35 7 35 13 0 11 28 -3 32 -7 3 -8 9 -2 19 17 26 32 81 27
95 -3 8 0 21 7 29 6 8 9 19 5 25 -4 6 -4 19 0 28 6 14 9 12 17 -11 5 -15 6
-35 2 -45z m-1121 -18 c7 -7 -13 -64 -23 -64 -11 0 -20 39 -13 56 5 14 25 19
36 8z m-79 -25 c-31 -12 -40 -9 -20 6 10 8 24 11 29 8 6 -4 2 -10 -9 -14z
m-84 -20 c0 -11 -4 -17 -10 -14 -5 3 -10 15 -10 26 0 11 5 17 10 14 6 -3 10
-15 10 -26z m607 -105 c-3 -3 -12 -4 -19 -1 -8 3 -5 6 6 6 11 1 17 -2 13 -5z
m-217 -19 c0 -18 17 -20 22 -3 3 9 9 8 21 -4 24 -24 0 -42 -33 -25 -25 13 -40
47 -21 47 6 0 11 -7 11 -15z m-270 -5 c34 -8 111 -29 260 -69 41 -11 84 -25
95 -30 26 -13 176 -63 195 -66 8 -1 32 -9 53 -18 38 -18 49 -37 21 -37 -22 0
-48 -27 -31 -33 7 -3 5 -6 -5 -6 -10 -1 -19 4 -19 9 -1 6 -2 15 -3 22 -2 20
-23 20 -28 0 -4 -13 -14 -20 -33 -20 -21 0 -26 4 -22 19 3 12 0 19 -9 19 -8 0
-14 -7 -14 -15 0 -16 -27 -20 -48 -7 -7 5 -10 16 -6 25 4 11 1 17 -9 17 -10 0
-13 -7 -10 -20 6 -24 0 -25 -32 -4 -13 9 -33 13 -43 10 -12 -4 -24 0 -32 9 -9
11 -22 14 -37 10 -15 -3 -30 0 -40 10 -9 10 -25 14 -37 11 -11 -3 -27 1 -36 8
-8 8 -31 16 -50 19 -78 13 -106 20 -119 31 -8 6 -24 9 -37 8 -28 -4 -32 18 -9
42 9 8 15 19 14 23 -7 43 7 50 71 33z m1173 -27 c-3 -7 -10 -13 -15 -13 -6 0
-7 7 -4 16 3 9 6 21 6 27 0 7 4 7 9 -2 5 -8 7 -20 4 -28z m-783 5 c0 -17 -3
-19 -9 -9 -5 7 -15 17 -22 22 -10 6 -8 9 9 9 16 0 22 -6 22 -22z m60 -18 c9
-16 8 -18 -5 -14 -8 4 -15 12 -15 20 0 20 7 17 20 -6z m699 -54 c-9 -8 -10 -7
-5 7 3 10 7 24 7 30 1 7 3 4 6 -7 3 -10 -1 -23 -8 -30z m-1402 28 c-3 -3 -12
-4 -19 -1 -8 3 -5 6 6 6 11 1 17 -2 13 -5z m813 -42 c14 -3 38 -14 55 -24 l30
-18 -41 0 c-25 0 -47 6 -54 15 -7 8 -21 15 -31 15 -20 0 -32 13 -22 24 4 4 14
4 22 0 9 -4 27 -9 41 -12z m600 -47 c5 -6 -1 -15 -16 -22 -28 -13 -28 -11 -11
35 9 26 13 30 16 16 2 -10 7 -24 11 -29z m157 1 c4 -3 14 -6 24 -6 13 0 16 -5
12 -16 -4 -10 -13 -13 -27 -10 -103 30 -122 33 -133 24 -9 -7 -13 -7 -13 0 0
6 5 12 10 14 16 5 121 0 127 -6z m-1507 -21 c30 -9 60 -22 65 -28 7 -6 2 -7
-15 -2 -14 5 -44 8 -68 9 -26 1 -46 7 -52 16 -13 21 -12 33 3 28 6 -3 37 -13
67 -23z m1190 13 c0 -9 4 -8 11 2 7 12 9 8 7 -14 -2 -18 -12 -35 -28 -44 -18
-11 -21 -12 -12 -2 16 19 15 31 -3 24 -18 -7 -19 0 -5 27 12 21 30 26 30 7z
m160 -37 c0 -5 -7 -14 -15 -21 -16 -14 -18 -10 -9 14 6 17 24 22 24 7z m-1340
-21 c0 -5 -7 -10 -16 -10 -8 0 -12 5 -9 10 3 6 10 10 16 10 5 0 9 -4 9 -10z
m145 -1 c22 -5 54 -16 70 -24 17 -8 42 -17 58 -20 15 -3 27 -10 27 -16 0 -7
-7 -8 -17 -4 -10 4 -36 11 -58 15 -22 5 -52 13 -67 19 -16 6 -28 8 -28 4 0 -3
-8 1 -17 9 -10 9 -25 18 -33 21 -28 10 23 7 65 -4z m1295 1 c0 -5 -5 -10 -11
-10 -5 0 -7 5 -4 10 3 6 8 10 11 10 2 0 4 -4 4 -10z m-407 -19 c-13 -11 -23
-24 -23 -30 0 -6 -7 -11 -15 -11 -8 0 -15 3 -15 7 0 11 51 53 64 53 6 -1 1 -9
-11 -19z m-983 -5 c0 -11 -19 -15 -25 -6 -3 5 1 10 9 10 9 0 16 -2 16 -4z
m1150 -20 c0 -7 -9 -22 -20 -34 -11 -12 -20 -25 -20 -30 0 -5 -9 -17 -20 -27
-11 -10 -20 -14 -20 -8 0 9 9 22 49 69 5 7 7 14 4 18 -3 3 -3 12 1 21 6 18 26
11 26 -9z m-76 -1 c3 -9 0 -15 -9 -15 -8 0 -15 7 -15 15 0 8 4 15 9 15 5 0 11
-7 15 -15z m-749 -31 c-10 -8 -22 -14 -25 -14 -3 0 -15 6 -25 14 -17 12 -14
13 25 13 39 0 42 -1 25 -13z m583 -1 c5 -18 -23 -16 -39 3 -11 14 -10 15 11
12 13 -1 25 -9 28 -15z m-544 -19 c9 -3 13 -10 10 -15 -3 -5 -10 -7 -15 -4 -5
3 -6 -1 -3 -9 7 -19 21 -21 27 -3 2 6 7 9 11 5 8 -7 -15 -48 -26 -48 -5 0 -8
7 -8 15 0 8 -7 15 -15 15 -10 0 -14 9 -13 25 2 26 7 29 32 19z m96 -33 c-10
-20 -29 -36 -34 -30 -9 10 15 49 29 49 12 0 14 -4 5 -19z m90 -23 c0 -4 -13
-8 -30 -8 -16 0 -30 4 -30 9 0 5 -3 16 -6 24 -5 13 0 13 30 -1 20 -9 36 -20
36 -24z m1010 10 c-13 -5 -31 -6 -39 -2 -13 5 -10 8 9 14 35 9 60 -1 30 -12z
m-413 -30 c-3 -8 -6 -5 -6 6 -1 11 2 17 5 13 3 -3 4 -12 1 -19z m323 -8 c0 -5
-7 -10 -15 -10 -8 0 -15 5 -15 10 0 6 7 10 15 10 8 0 15 -4 15 -10z"/>
<path d="M1080 1065 c0 -14 2 -25 4 -25 2 0 6 11 8 25 3 14 1 25 -3 25 -5 0
-9 -11 -9 -25z"/>
<path d="M1095 940 c-3 -5 -1 -10 4 -10 6 0 11 5 11 10 0 6 -2 10 -4 10 -3 0
-8 -4 -11 -10z"/>
<path d="M1100 890 c0 -5 7 -10 15 -10 8 0 15 5 15 10 0 6 -7 10 -15 10 -8 0
-15 -4 -15 -10z"/>
<path d="M872 658 c4 -10 1 -19 -8 -22 -18 -7 -18 -26 1 -26 8 0 19 9 24 19 8
14 7 22 -6 32 -15 12 -16 12 -11 -3z"/>
<path d="M1602 630 c0 -14 2 -19 5 -12 2 6 2 18 0 25 -3 6 -5 1 -5 -13z"/>
<path d="M490 460 c0 -5 7 -10 15 -10 8 0 15 5 15 10 0 6 -7 10 -15 10 -8 0
-15 -4 -15 -10z"/>
<path d="M590 440 c0 -5 7 -10 15 -10 8 0 15 5 15 10 0 6 -7 10 -15 10 -8 0
-15 -4 -15 -10z"/>
<path d="M680 380 c0 -5 5 -10 11 -10 5 0 7 5 4 10 -3 6 -8 10 -11 10 -2 0 -4
-4 -4 -10z"/>
<path d="M765 371 c-3 -5 -1 -12 5 -16 5 -3 10 1 10 9 0 18 -6 21 -15 7z"/>
<path d="M1367 3203 c-4 -3 -7 -11 -7 -17 0 -6 5 -5 12 2 6 6 9 14 7 17 -3 3
-9 2 -12 -2z"/>
<path d="M2243 3185 c60 -16 154 -30 145 -20 -10 11 -120 34 -158 34 -34 -1
-33 -1 13 -14z"/>
<path d="M947 3103 c-2 -5 -7 -20 -11 -34 -7 -32 11 -43 37 -24 13 10 15 14 5
17 -11 4 -11 8 0 20 10 13 10 17 -4 22 -20 8 -22 8 -27 -1z"/>
<path d="M955 3000 c4 -6 11 -8 16 -5 14 9 11 15 -7 15 -8 0 -12 -5 -9 -10z"/>
<path d="M1290 3000 c0 -5 5 -10 10 -10 6 0 10 5 10 10 0 6 -4 10 -10 10 -5 0
-10 -4 -10 -10z"/>
<path d="M1168 2986 c-38 -14 -35 -30 4 -22 37 7 45 13 32 25 -5 4 -21 3 -36
-3z"/>
<path d="M3140 2912 c0 -34 3 -62 8 -62 4 0 7 24 7 54 0 30 -3 58 -7 62 -5 4
-8 -20 -8 -54z"/>
<path d="M976 2921 c-11 -12 -16 -21 -11 -21 4 0 2 -7 -5 -16 -11 -13 -10 -16
8 -21 12 -3 20 -9 17 -13 -3 -5 10 -4 27 2 18 6 39 13 47 15 10 2 11 6 2 17
-10 11 -8 17 6 25 17 9 17 10 0 16 -9 4 -28 4 -41 1 -14 -3 -26 -1 -28 5 -2 6
-12 1 -22 -10z"/>
<path d="M1270 2865 c-7 -8 -19 -15 -26 -15 -8 0 -14 -6 -14 -13 0 -8 -9 -24
-20 -37 -11 -13 -20 -27 -20 -33 0 -5 9 2 20 16 11 14 30 29 42 33 25 8 48 28
48 43 0 18 -17 21 -30 6z"/>
<path d="M1190 2850 c0 -5 5 -10 10 -10 6 0 10 5 10 10 0 6 -4 10 -10 10 -5 0
-10 -4 -10 -10z"/>
<path d="M1337 2833 c-4 -3 -7 -11 -7 -17 0 -6 5 -5 12 2 6 6 9 14 7 17 -3 3
-9 2 -12 -2z"/>
<path d="M1100 2820 c0 -5 5 -10 10 -10 6 0 10 5 10 10 0 6 -4 10 -10 10 -5 0
-10 -4 -10 -10z"/>
<path d="M1290 2815 c-8 -9 -8 -15 -2 -15 12 0 26 19 19 26 -2 2 -10 -2 -17
-11z"/>
<path d="M1883 2760 c0 -25 2 -35 4 -22 2 12 2 32 0 45 -2 12 -4 2 -4 -23z"/>
<path d="M1921 2754 c0 -11 3 -14 6 -6 3 7 2 16 -1 19 -3 4 -6 -2 -5 -13z"/>
<path d="M1216 2705 c-3 -8 -1 -15 4 -15 6 0 10 7 10 15 0 8 -2 15 -4 15 -2 0
-6 -7 -10 -15z"/>
<path d="M1873 2650 c0 -36 2 -50 4 -32 2 17 2 47 0 65 -2 17 -4 3 -4 -33z"/>
<path d="M3150 2701 c0 -6 5 -13 10 -16 6 -3 10 1 10 9 0 9 -4 16 -10 16 -5 0
-10 -4 -10 -9z"/>
<path d="M1932 2660 c0 -19 2 -27 5 -17 2 9 2 25 0 35 -3 9 -5 1 -5 -18z"/>
<path d="M1540 2530 c0 -5 7 -10 16 -10 8 0 12 5 9 10 -3 6 -10 10 -16 10 -5
0 -9 -4 -9 -10z"/>
<path d="M3546 2475 c8 -50 14 -58 14 -19 0 16 -5 36 -11 44 -7 11 -8 4 -3
-25z"/>
<path d="M3300 2450 c0 -5 5 -10 11 -10 5 0 7 5 4 10 -3 6 -8 10 -11 10 -2 0
-4 -4 -4 -10z"/>
<path d="M463 2199 c-55 -38 -288 -154 -338 -168 -59 -16 -73 -14 -87 16 -7
14 -19 28 -25 31 -10 3 -13 -91 -12 -450 l0 -453 20 54 c30 85 49 128 115 256
34 66 68 134 76 150 79 164 175 349 231 448 37 66 67 125 65 132 -2 9 -16 4
-45 -16z"/>
<path d="M1253 176 c-28 -13 -29 -22 -3 -29 13 -3 20 0 20 9 0 8 5 14 10 14 6
0 10 5 10 10 0 12 -8 11 -37 -4z"/>
<path d="M1302 150 c-16 -26 -15 -29 8 -23 11 3 20 14 20 24 0 25 -12 24 -28
-1z"/>
<path d="M1347 144 c-4 -4 -7 -14 -7 -23 0 -11 3 -12 11 -4 6 6 10 16 7 23 -2
6 -7 8 -11 4z"/>
<path d="M2091 134 c6 -8 18 -14 26 -14 20 0 8 16 -17 23 -17 4 -19 3 -9 -9z"/>
<path d="M2144 103 c11 -11 48 -14 41 -3 -3 5 -16 10 -27 10 -12 0 -18 -3 -14
-7z"/>
<path d="M2250 60 c8 -5 22 -9 30 -9 10 0 8 3 -5 9 -27 12 -43 12 -25 0z"/>
<path d="M1722 20 c0 -14 2 -19 5 -12 2 6 2 18 0 25 -3 6 -5 1 -5 -13z"/>
<path d="M2345 10 c3 -5 11 -10 16 -10 6 0 7 5 4 10 -3 6 -11 10 -16 10 -6 0
-7 -4 -4 -10z"/>
</g>
</svg>
